<svg width="63" height="24" viewBox="0 0 63 24" fill="none" xmlns="http://www.w3.org/2000/svg">
<path d="M17.8647 17.2409L18.9052 16.1374V7.7687L17.7196 6.13043H23.062V16.1374L24.1025 17.2409V17.593H17.8647V17.2409ZM18.6764 2.44696C18.6764 0.991304 19.5078 0 20.9836 0C22.4594 0 23.2908 0.991304 23.2908 2.44696C23.2908 3.92348 22.4594 4.91478 20.9836 4.91478C19.5078 4.91478 18.6764 3.92348 18.6764 2.44696Z" fill="white"/>
<path d="M50.4286 17.1365V17.4887H45.2313V15.7461C44.1294 16.9357 42.8405 17.7078 41.6156 17.7078C39.4953 17.7078 37.9162 15.8792 37.9162 12.4826C37.9162 8.82263 39.8913 6.24524 42.7396 6.24524C43.8416 6.24524 44.5893 6.59741 45.2338 7.06176V4.02002L44.0482 2.94002L49.3906 0.954803V16.4531L50.4286 17.1365ZM45.2313 15.4383V7.43741C44.9411 7.21567 44.5672 7.10611 44.213 7.10611C43.1332 7.10611 42.3633 8.49393 42.3633 11.2278C42.3633 14.1809 42.9659 15.66 44.3581 15.66C44.6705 15.66 44.9411 15.5713 45.2313 15.4383Z" fill="white"/>
<path d="M37.3553 17.1365V17.4887H32.1579V15.7461C31.056 16.9357 29.7671 17.7078 28.5422 17.7078C26.422 17.7078 24.8428 15.8792 24.8428 12.4826C24.8428 8.82263 26.818 6.24524 29.6663 6.24524C30.7682 6.24524 31.516 6.59741 32.1604 7.06176V4.02002L30.9748 2.94002L36.3173 0.954803V16.4531L37.3553 17.1365ZM32.1579 15.4383V7.43741C31.8677 7.21567 31.4938 7.10611 31.1396 7.10611C30.0598 7.10611 29.29 8.49393 29.29 11.2278C29.29 14.1809 29.8926 15.66 31.2848 15.66C31.5971 15.66 31.8677 15.5713 32.1579 15.4383Z" fill="white"/>
<path d="M16.0396 7.05652V5.36348C16.0322 5.35043 16.0249 5.34 16.0175 5.32695V1.20782H12.5469V2.17826C11.3588 1.59391 10.0109 1.26261 8.57693 1.26261C3.83957 1.26261 0 4.88608 0 9.35739C0 13.8287 3.83957 17.4548 8.57693 17.4548C10.0085 17.4548 11.3588 17.1235 12.5444 16.5365V17.4209H16.015V13.393C16.0224 13.38 16.0298 13.3696 16.0372 13.3565V12.8452V11.5539H16.015H12.5469H9.44029V12.8452H12.5444V13.2809C12.5444 15.1148 11.5974 16.5991 8.84012 16.5991C6.36321 16.5991 4.67587 14.4052 4.66849 9.19043C4.66849 9.18 4.66849 9.16956 4.66849 9.15913C4.66849 3.92087 6.13938 1.77913 8.87948 1.77913C10.9038 1.77913 12.5444 3.52695 12.5444 5.68435V7.05391H16.0396V7.05652Z" fill="white"/>
<path d="M62.9999 6.39651L55.9209 19.0148C54.7083 21.193 53.5768 24 50.5096 24V18.8583C52.3962 19.6461 54.3369 19.8861 56.2702 17.3452L50.512 6.39912H56.2898L55.2715 7.60956L58.5823 13.3748L60.6435 9.91304L58.5036 6.39651H62.9999Z" fill="white"/>
</svg>
